<svg width="6" height="15" viewBox="0 0 6 15" fill="none" xmlns="http://www.w3.org/2000/svg">
<g clip-path="url(#clip0_4_815)">
<path d="M0.696411 11.1436C0.555135 11.1436 0.434367 11.0946 0.334106 10.9966C0.233846 10.8986 0.183716 10.779 0.183716 10.6377C0.183716 10.4964 0.236125 10.3734 0.340942 10.2686L3.10266 7.51367L0.340942 4.75879C0.236125 4.65397 0.183716 4.53092 0.183716 4.38965C0.183716 4.24837 0.233846 4.12874 0.334106 4.03076C0.434367 3.93278 0.555135 3.88379 0.696411 3.88379C0.828573 3.88379 0.947062 3.93164 1.05188 4.02734L4.16907 7.13086C4.27844 7.23112 4.33313 7.35872 4.33313 7.51367C4.33313 7.65951 4.27844 7.78711 4.16907 7.89648L1.05188 11C0.956177 11.0957 0.837687 11.1436 0.696411 11.1436Z" fill="#0066CC"/>
</g>
<defs>
<clipPath id="clip0_4_815">
<rect width="5.82" height="14" fill="white" transform="matrix(1 0 0 -1 0.179932 14.5)"/>
</clipPath>
</defs>
</svg>
