<svg width="7" height="14" viewBox="0 0 7 11" fill="none" xmlns="http://www.w3.org/2000/svg">
<path d="M0.764157 11C0.550831 11 0.368472 10.926 0.217079 10.7781C0.0656865 10.6301 -0.0100098 10.4495 -0.0100098 10.2362C-0.0100098 10.0228 0.0691273 9.83703 0.227401 9.67876L4.39758 5.5189L0.227401 1.35905C0.0691273 1.20077 -0.0100098 1.01497 -0.0100098 0.801646C-0.0100098 0.588321 0.0656865 0.407681 0.217079 0.259729C0.368472 0.111777 0.550831 0.0378017 0.764157 0.0378017C0.96372 0.0378017 1.14264 0.110057 1.30091 0.254568L6.00784 4.94086C6.173 5.09225 6.25558 5.28493 6.25558 5.5189C6.25558 5.73911 6.173 5.93179 6.00784 6.09695L1.30091 10.7832C1.1564 10.9277 0.977483 11 0.764157 11Z" fill="#2997FF"/>
</svg>
